<mxfile host="app.diagrams.net" modified="2022-11-20T03:05:20.192Z" agent="5.0 (Windows NT 10.0; Win64; x64) AppleWebKit/537.36 (KHTML, like Gecko) Chrome/106.0.0.0 Safari/537.36 OPR/92.0.0.0" etag="uZbxsduV9i81fy19aQlE" version="20.4.1" type="github">
  <diagram id="Gh7NdadNqF6mylFv5dgX" name="Página-1">
    <mxGraphModel dx="1625" dy="889" grid="1" gridSize="10" guides="1" tooltips="1" connect="1" arrows="1" fold="1" page="1" pageScale="1" pageWidth="827" pageHeight="1169" math="0" shadow="0">
      <root>
        <mxCell id="0" />
        <mxCell id="1" parent="0" />
        <mxCell id="bGCuKHkv1DatVOWdUzi9-1" value="Passageiro&lt;br&gt;" style="shape=umlActor;verticalLabelPosition=bottom;verticalAlign=top;html=1;outlineConnect=0;" parent="1" vertex="1">
          <mxGeometry x="100" y="121" width="30" height="60" as="geometry" />
        </mxCell>
        <mxCell id="bGCuKHkv1DatVOWdUzi9-4" value="Sensores" style="shape=umlActor;verticalLabelPosition=bottom;verticalAlign=top;html=1;outlineConnect=0;" parent="1" vertex="1">
          <mxGeometry x="1140" y="310" width="30" height="60" as="geometry" />
        </mxCell>
        <mxCell id="bGCuKHkv1DatVOWdUzi9-5" value="Usuario Controle" style="shape=umlActor;verticalLabelPosition=bottom;verticalAlign=top;html=1;outlineConnect=0;" parent="1" vertex="1">
          <mxGeometry x="110" y="610" width="30" height="60" as="geometry" />
        </mxCell>
        <mxCell id="bGCuKHkv1DatVOWdUzi9-6" value="Usuario Mestre" style="shape=umlActor;verticalLabelPosition=bottom;verticalAlign=top;html=1;outlineConnect=0;" parent="1" vertex="1">
          <mxGeometry x="100" y="340" width="30" height="60" as="geometry" />
        </mxCell>
        <mxCell id="bGCuKHkv1DatVOWdUzi9-9" value="Chamar Elevador" style="ellipse;whiteSpace=wrap;html=1;" parent="1" vertex="1">
          <mxGeometry x="300" y="1" width="120" height="80" as="geometry" />
        </mxCell>
        <mxCell id="bGCuKHkv1DatVOWdUzi9-13" value="Autenticar Passageiro VIP" style="ellipse;whiteSpace=wrap;html=1;" parent="1" vertex="1">
          <mxGeometry x="580" y="1" width="120" height="80" as="geometry" />
        </mxCell>
        <mxCell id="bGCuKHkv1DatVOWdUzi9-14" value="Ação carga máxima excedida" style="ellipse;whiteSpace=wrap;html=1;" parent="1" vertex="1">
          <mxGeometry x="760" y="100" width="120" height="80" as="geometry" />
        </mxCell>
        <mxCell id="bGCuKHkv1DatVOWdUzi9-15" value="Ação incêndio detectado" style="ellipse;whiteSpace=wrap;html=1;" parent="1" vertex="1">
          <mxGeometry x="760" y="270" width="120" height="80" as="geometry" />
        </mxCell>
        <mxCell id="bGCuKHkv1DatVOWdUzi9-16" value="Ação emergência" style="ellipse;whiteSpace=wrap;html=1;" parent="1" vertex="1">
          <mxGeometry x="760" y="450" width="120" height="80" as="geometry" />
        </mxCell>
        <mxCell id="bGCuKHkv1DatVOWdUzi9-20" value="" style="endArrow=none;html=1;rounded=0;exitX=1;exitY=0.3333333333333333;exitDx=0;exitDy=0;exitPerimeter=0;entryX=0;entryY=0.5;entryDx=0;entryDy=0;" parent="1" source="bGCuKHkv1DatVOWdUzi9-1" target="bGCuKHkv1DatVOWdUzi9-9" edge="1">
          <mxGeometry width="50" height="50" relative="1" as="geometry">
            <mxPoint x="603" y="381" as="sourcePoint" />
            <mxPoint x="653" y="331" as="targetPoint" />
          </mxGeometry>
        </mxCell>
        <mxCell id="bGCuKHkv1DatVOWdUzi9-21" value="" style="endArrow=classic;html=1;rounded=0;exitX=1;exitY=0.5;exitDx=0;exitDy=0;entryX=0;entryY=0.5;entryDx=0;entryDy=0;dashed=1;" parent="1" source="bGCuKHkv1DatVOWdUzi9-9" target="bGCuKHkv1DatVOWdUzi9-13" edge="1">
          <mxGeometry width="50" height="50" relative="1" as="geometry">
            <mxPoint x="603" y="381" as="sourcePoint" />
            <mxPoint x="653" y="331" as="targetPoint" />
          </mxGeometry>
        </mxCell>
        <mxCell id="bGCuKHkv1DatVOWdUzi9-22" value="&amp;lt;include&amp;gt;" style="text;html=1;align=center;verticalAlign=middle;resizable=0;points=[];autosize=1;strokeColor=none;fillColor=none;" parent="1" vertex="1">
          <mxGeometry x="450" y="41" width="80" height="30" as="geometry" />
        </mxCell>
        <mxCell id="bGCuKHkv1DatVOWdUzi9-25" value="" style="endArrow=none;html=1;rounded=0;entryX=0;entryY=0.5;entryDx=0;entryDy=0;exitX=1;exitY=0.3333333333333333;exitDx=0;exitDy=0;exitPerimeter=0;" parent="1" source="bGCuKHkv1DatVOWdUzi9-5" target="iMthBquLO3a5Ex8oS6cl-1" edge="1">
          <mxGeometry width="50" height="50" relative="1" as="geometry">
            <mxPoint x="170" y="420" as="sourcePoint" />
            <mxPoint x="350" y="539.9999999999998" as="targetPoint" />
          </mxGeometry>
        </mxCell>
        <mxCell id="bGCuKHkv1DatVOWdUzi9-27" value="Desativar Elevador" style="ellipse;whiteSpace=wrap;html=1;" parent="1" vertex="1">
          <mxGeometry x="350" y="700" width="120" height="80" as="geometry" />
        </mxCell>
        <mxCell id="bGCuKHkv1DatVOWdUzi9-28" value="" style="endArrow=none;html=1;rounded=0;entryX=0;entryY=0.5;entryDx=0;entryDy=0;exitX=1;exitY=0.3333333333333333;exitDx=0;exitDy=0;exitPerimeter=0;" parent="1" source="bGCuKHkv1DatVOWdUzi9-5" target="bGCuKHkv1DatVOWdUzi9-27" edge="1">
          <mxGeometry width="50" height="50" relative="1" as="geometry">
            <mxPoint x="150" y="640" as="sourcePoint" />
            <mxPoint x="330" y="700" as="targetPoint" />
          </mxGeometry>
        </mxCell>
        <mxCell id="bGCuKHkv1DatVOWdUzi9-29" value="Gerenciar usuários" style="ellipse;whiteSpace=wrap;html=1;" parent="1" vertex="1">
          <mxGeometry x="350" y="160" width="120" height="80" as="geometry" />
        </mxCell>
        <mxCell id="bGCuKHkv1DatVOWdUzi9-30" value="" style="endArrow=none;html=1;rounded=0;exitX=1;exitY=0.3333333333333333;exitDx=0;exitDy=0;exitPerimeter=0;entryX=0;entryY=0.5;entryDx=0;entryDy=0;" parent="1" source="bGCuKHkv1DatVOWdUzi9-6" target="bGCuKHkv1DatVOWdUzi9-29" edge="1">
          <mxGeometry width="50" height="50" relative="1" as="geometry">
            <mxPoint x="140" y="370" as="sourcePoint" />
            <mxPoint x="350" y="170" as="targetPoint" />
          </mxGeometry>
        </mxCell>
        <mxCell id="bGCuKHkv1DatVOWdUzi9-31" value="" style="endArrow=none;html=1;rounded=0;exitX=1;exitY=0.5;exitDx=0;exitDy=0;" parent="1" source="bGCuKHkv1DatVOWdUzi9-16" edge="1">
          <mxGeometry width="50" height="50" relative="1" as="geometry">
            <mxPoint x="940" y="500" as="sourcePoint" />
            <mxPoint x="1140" y="330" as="targetPoint" />
          </mxGeometry>
        </mxCell>
        <mxCell id="bGCuKHkv1DatVOWdUzi9-32" value="" style="endArrow=none;html=1;rounded=0;exitX=1;exitY=0.5;exitDx=0;exitDy=0;entryX=0;entryY=0.3333333333333333;entryDx=0;entryDy=0;entryPerimeter=0;" parent="1" source="bGCuKHkv1DatVOWdUzi9-15" target="bGCuKHkv1DatVOWdUzi9-4" edge="1">
          <mxGeometry width="50" height="50" relative="1" as="geometry">
            <mxPoint x="890" y="420" as="sourcePoint" />
            <mxPoint x="1070" y="340" as="targetPoint" />
          </mxGeometry>
        </mxCell>
        <mxCell id="bGCuKHkv1DatVOWdUzi9-33" value="" style="endArrow=none;html=1;rounded=0;exitX=1;exitY=0.5;exitDx=0;exitDy=0;entryX=0;entryY=0.3333333333333333;entryDx=0;entryDy=0;entryPerimeter=0;" parent="1" source="bGCuKHkv1DatVOWdUzi9-14" target="bGCuKHkv1DatVOWdUzi9-4" edge="1">
          <mxGeometry width="50" height="50" relative="1" as="geometry">
            <mxPoint x="930" y="280" as="sourcePoint" />
            <mxPoint x="1110" y="200" as="targetPoint" />
          </mxGeometry>
        </mxCell>
        <mxCell id="bGCuKHkv1DatVOWdUzi9-41" value="" style="endArrow=none;html=1;rounded=0;entryX=0;entryY=0.5;entryDx=0;entryDy=0;" parent="1" target="iMthBquLO3a5Ex8oS6cl-2" edge="1">
          <mxGeometry width="50" height="50" relative="1" as="geometry">
            <mxPoint x="140" y="630" as="sourcePoint" />
            <mxPoint x="350" y="629.9999999999998" as="targetPoint" />
          </mxGeometry>
        </mxCell>
        <mxCell id="iMthBquLO3a5Ex8oS6cl-1" value="Login Usuario" style="ellipse;whiteSpace=wrap;html=1;" vertex="1" parent="1">
          <mxGeometry x="350" y="450" width="120" height="80" as="geometry" />
        </mxCell>
        <mxCell id="iMthBquLO3a5Ex8oS6cl-2" value="Configurar Elevador" style="ellipse;whiteSpace=wrap;html=1;" vertex="1" parent="1">
          <mxGeometry x="354" y="590" width="120" height="80" as="geometry" />
        </mxCell>
        <mxCell id="iMthBquLO3a5Ex8oS6cl-3" value="" style="endArrow=none;html=1;rounded=0;entryX=0;entryY=0.5;entryDx=0;entryDy=0;" edge="1" parent="1" target="iMthBquLO3a5Ex8oS6cl-1">
          <mxGeometry width="50" height="50" relative="1" as="geometry">
            <mxPoint x="130" y="360" as="sourcePoint" />
            <mxPoint x="360" y="280" as="targetPoint" />
          </mxGeometry>
        </mxCell>
        <mxCell id="iMthBquLO3a5Ex8oS6cl-4" value="Cadastrar Usuários" style="ellipse;whiteSpace=wrap;html=1;" vertex="1" parent="1">
          <mxGeometry x="354" y="250" width="120" height="80" as="geometry" />
        </mxCell>
        <mxCell id="iMthBquLO3a5Ex8oS6cl-6" value="" style="endArrow=none;html=1;rounded=0;entryX=0;entryY=0.5;entryDx=0;entryDy=0;" edge="1" parent="1" target="iMthBquLO3a5Ex8oS6cl-4">
          <mxGeometry width="50" height="50" relative="1" as="geometry">
            <mxPoint x="130" y="360" as="sourcePoint" />
            <mxPoint x="360" y="210" as="targetPoint" />
          </mxGeometry>
        </mxCell>
        <mxCell id="iMthBquLO3a5Ex8oS6cl-7" value="Remover Usuários" style="ellipse;whiteSpace=wrap;html=1;" vertex="1" parent="1">
          <mxGeometry x="354" y="350" width="120" height="80" as="geometry" />
        </mxCell>
        <mxCell id="iMthBquLO3a5Ex8oS6cl-8" value="" style="endArrow=none;html=1;rounded=0;entryX=0;entryY=0.5;entryDx=0;entryDy=0;" edge="1" parent="1" target="iMthBquLO3a5Ex8oS6cl-7">
          <mxGeometry width="50" height="50" relative="1" as="geometry">
            <mxPoint x="130" y="360" as="sourcePoint" />
            <mxPoint x="360" y="300" as="targetPoint" />
          </mxGeometry>
        </mxCell>
      </root>
    </mxGraphModel>
  </diagram>
</mxfile>
